<svg width="20" height="20" viewBox="0 0 20 20" fill="none" xmlns="http://www.w3.org/2000/svg">
<path d="M7.75 1H1.86538C1.38745 1 1 1.38745 1 1.86538V7.75C1 8.22794 1.38745 8.61538 1.86538 8.61538H7.75C8.22794 8.61538 8.61538 8.22794 8.61538 7.75V1.86538C8.61538 1.38745 8.22794 1 7.75 1Z" stroke="black" stroke-width="1.5" stroke-linecap="round" stroke-linejoin="round"/>
<path d="M18.1346 1H12.25C11.7721 1 11.3846 1.38745 11.3846 1.86538V7.75C11.3846 8.22794 11.7721 8.61538 12.25 8.61538H18.1346C18.6126 8.61538 19 8.22794 19 7.75V1.86538C19 1.38745 18.6126 1 18.1346 1Z" stroke="black" stroke-width="1.5" stroke-linecap="round" stroke-linejoin="round"/>
<path d="M7.75 11.3846H1.86538C1.38745 11.3846 1 11.7721 1 12.25V18.1346C1 18.6125 1.38745 19 1.86538 19H7.75C8.22794 19 8.61538 18.6125 8.61538 18.1346V12.25C8.61538 11.7721 8.22794 11.3846 7.75 11.3846Z" stroke="black" stroke-width="1.5" stroke-linecap="round" stroke-linejoin="round"/>
<path d="M18.1346 11.3846H12.25C11.7721 11.3846 11.3846 11.7721 11.3846 12.25V18.1346C11.3846 18.6125 11.7721 19 12.25 19H18.1346C18.6126 19 19 18.6125 19 18.1346V12.25C19 11.7721 18.6126 11.3846 18.1346 11.3846Z" stroke="black" stroke-width="1.5" stroke-linecap="round" stroke-linejoin="round"/>
</svg>
