<svg width="138" height="138" viewBox="0 0 138 138" fill="none" xmlns="http://www.w3.org/2000/svg">
<rect width="138" height="138" fill="white"/>
<path fill-rule="evenodd" clip-rule="evenodd" d="M69 12.3846V0C49.9995 0 32.7978 7.85961 20.3461 20.3462L28.9669 28.9669C39.2123 18.7215 53.3661 12.3846 69 12.3846Z" fill="#A8BDFF"/>
<path fill-rule="evenodd" clip-rule="evenodd" d="M12.3844 69C12.3844 53.3661 18.7213 39.2122 28.9667 28.9669L20.346 20.3462C7.85946 32.7978 -0.000148773 49.9995 -0.000148773 69H12.3844Z" fill="#123CE1"/>
<path fill-rule="evenodd" clip-rule="evenodd" d="M12.3844 69H-0.000120163C-0.000120163 88.0005 7.85949 105.202 20.346 117.654L28.9667 109.033C18.7213 98.7878 12.3844 84.6339 12.3844 69Z" fill="#CFD8DC"/>
<path fill-rule="evenodd" clip-rule="evenodd" d="M69 125.615V138C49.9995 138 32.7978 130.14 20.3461 117.654L28.9669 109.033C39.2123 119.278 53.3661 125.615 69 125.615Z" fill="#CFD8DC"/>
<path fill-rule="evenodd" clip-rule="evenodd" d="M69 125.615V138C88.0005 138 105.202 130.14 117.654 117.654L109.033 109.033C98.7878 119.278 84.6339 125.615 69 125.615Z" fill="#FF7ADA"/>
<path fill-rule="evenodd" clip-rule="evenodd" d="M125.616 69H138C138 88.0005 130.141 105.202 117.654 117.654L109.033 109.033C119.279 98.7878 125.616 84.6339 125.616 69Z" fill="#64D60B"/>
<path fill-rule="evenodd" clip-rule="evenodd" d="M125.616 69C125.616 53.3661 119.279 39.2122 109.033 28.9669L117.654 20.3462C130.141 32.7978 138 49.9995 138 69H125.616Z" fill="#FFB800"/>
<path fill-rule="evenodd" clip-rule="evenodd" d="M69 12.3846V1.90735e-06C88.0005 1.90735e-06 105.202 7.85961 117.654 20.3462L109.033 28.9669C98.7878 18.7215 84.6339 12.3846 69 12.3846Z" fill="#FFB800"/>
</svg>
